<?xml version="1.0" encoding="UTF-8" standalone="no"?>
<!-- Created with Inkscape (http://www.inkscape.org/) -->

<svg
   width="1024"
   height="1024"
   viewBox="0 0 1024 1024"
   version="1.1"
   id="svg1"
   xml:space="preserve"
   xmlns="http://www.w3.org/2000/svg"
   xmlns:svg="http://www.w3.org/2000/svg"><defs
     id="defs1" /><g
     id="g15"
     style="fill:#ffe38d;fill-opacity:1"
     transform="matrix(1.072047,0,0,1.0710524,-36.704744,-36.211209)"><path
       fill_rule="evenodd"
       stroke="none"
       fill-opacity="1"
       fill="#e5e5e5"
       d="M 354.607,280.921 C 537.73433,363.188 720.86167,445.455 903.989,527.722 932.466,501.58 960.943,475.438 989.42,449.296 806.52067,366.82 623.62133,284.344 440.722,201.868 c -28.705,26.351 -57.41,52.702 -86.115,79.053 z"
       id="path1-7"
       style="fill:#ffe38d;fill-opacity:1" /><path
       id="path2-8"
       d="m 333.93164,299.90039 c -28.70508,26.35091 -57.41015,52.70182 -86.11523,79.05273 17.09223,5.12483 33.39863,22.47747 51.67578,12.67383 42.28223,-13.96462 86.17894,-44.25902 132.1938,-27.07003 54.01785,22.16599 88.04249,72.83829 124.15466,116.16466 16.65786,19.85945 31.68333,41.96557 50.67276,59.37009 63.56194,28.55409 127.12387,57.10818 190.68581,85.66227 28.47721,-26.14193 56.95443,-52.28386 85.43164,-78.42579 C 699.73112,464.85223 516.83138,382.37631 333.93164,299.90039 Z"
       style="fill:#ffe38d;fill-opacity:1" /><path
       fill_rule="evenodd"
       stroke="none"
       fill-opacity="1"
       fill="#e5e5e5"
       d="m 686.154,721.758 c 11.92007,2.80523 20.48876,-16.72994 31.10468,-22.61819 C 736.78612,681.21354 756.31356,663.28727 775.841,645.361 725.57594,617.65571 663.81277,612.40834 620.92381,571.65867 559.817,516.59787 521.79456,439.23606 454.7249,390.44029 c -28.59143,-21.70354 -67.26876,-17.60816 -98.09911,-3.1469 -36.47393,14.83165 -78.11518,37.75954 -117.05679,17.37461 -11.94857,-11.52919 -20.49206,-0.0689 -29.54851,8.9824 -22.88383,21.0072 -45.76766,42.0144 -68.65149,63.0216 25.9438,16.98732 59.00813,18.54905 87.26851,6.33275 39.1964,-13.77792 80.97685,-41.8543 123.37976,-23.49578 49.85991,24.28316 80.9482,73.053 115.65655,114.25123 36.55827,45.86573 75.18423,96.05398 133.35718,114.7638 28.79985,9.99691 57.89753,19.30045 85.123,33.234 z"
       id="path1-5-9"
       style="fill:#ffe38d;fill-opacity:1" /><path
       fill_rule="evenodd"
       stroke="none"
       fill-opacity="1"
       fill="#e5e5e5"
       d="m 34.238,575.018 c 183.12733,82.267 366.25467,164.534 549.382,246.801 28.47733,-26.142 56.95467,-52.284 85.432,-78.426 C 486.15233,660.917 303.25267,578.441 120.353,495.965 91.648,522.316 62.943,548.667 34.238,575.018 Z"
       id="path3-6"
       style="fill:#ffe38d;fill-opacity:1" /></g></svg>
